Coordinates
version=1
nRows=8
nColumns=36
inDegrees=yes

Units are S.I. units (second, meters, Newtons, ...)
If the header above contains a line with 'inDegrees', this indicates whether rotational values are in degrees (yes) or radians (no).

endheader
time	pelvis_tilt	pelvis_list	pelvis_rotation	pelvis_tx	pelvis_ty	pelvis_tz	hip_flexion_r	hip_adduction_r	hip_rotation_r	knee_angle_r	knee_angle_r_beta	ankle_angle_r	subtalar_angle_r	mtp_angle_r	hip_flexion_l	hip_adduction_l	hip_rotation_l	knee_angle_l	knee_angle_l_beta	ankle_angle_l	subtalar_angle_l	mtp_angle_l	lumbar_extension	lumbar_bending	lumbar_rotation	arm_flex_r	arm_add_r	arm_rot_r	elbow_flex_r	pro_sup_r	arm_flex_l	arm_add_l	arm_rot_l	elbow_flex_l	pro_sup_l
      0.00000000	     -3.17880841	     -1.68933840	     12.76478402	     -0.05491128	      0.92585322	     -0.19688995	     27.28724376	      0.51379567	     -5.79822558	      4.50871319	      0.07869189	     -9.81305058	    -11.42552307	     -5.52007717	    -13.76136978	     -1.44870033	     -0.00132600	     10.00887470	      0.17468782	     17.77752060	      2.96527279	     -5.52007717	     -0.59652715	     -1.58749854	    -16.24331886	    -11.20163672	     -2.65551656	    -17.85587736	     19.20497642	    100.08218346	     21.89782986	    -10.50779847	     -4.28877207	     55.29241009	    104.56000636
      0.01000000	     -2.79672956	     -2.31495298	     12.94705274	     -0.04182122	      0.92662596	     -0.19629089	     26.74644086	      1.28560695	     -6.30393333	      5.45803157	      0.09526062	    -10.32512529	    -12.20681261	     -5.53784282	    -13.90089856	     -2.49603582	      0.07162900	     11.69502931	      0.20411677	     16.93972589	      2.37079695	     -5.53784282	     -0.87732661	     -0.70714603	    -16.14423483	    -11.27662624	     -2.81753151	    -17.88367067	     18.92217185	    100.13217326	     21.49367894	    -10.01963334	     -4.18114814	     55.35511749	    104.64333148
      0.02000000	     -2.55032014	     -2.92997857	     13.12242861	     -0.02882075	      0.92728288	     -0.19562291	     26.27525456	      2.10071402	     -6.26085484	      6.18855903	      0.10801073	    -12.24705862	    -14.77122474	     -5.64538831	    -13.82459246	     -3.44330553	      0.49459769	     13.47060428	      0.23510640	     15.65960347	      0.88052128	     -5.64538831	     -0.97159176	      0.11248456	    -16.28115636	    -11.17846918	     -3.02931396	    -17.76923094	     18.42368705	    100.50259495	     20.86657716	     -9.60937308	     -4.40178304	     55.51644018	    104.95926789
      0.03000000	     -2.13467254	     -3.53004106	     13.31899930	     -0.01579273	      0.92827438	     -0.19493340	     25.69391453	      2.89710595	     -6.76246284	      7.13846171	      0.12458966	    -12.41628026	    -15.40133375	     -5.66526203	    -13.75791069	     -4.46972184	      0.59776324	     15.51543704	      0.27079546	     14.51817769	      0.16394580	     -5.66526203	     -1.30089792	      0.95752062	    -16.15831160	    -11.17748224	     -3.17013159	    -17.79791914	     18.14830247	    100.54128525	     20.45937052	     -9.13740130	     -4.23496214	     55.48970768	    105.01307515
      0.04000000	     -1.78851128	     -4.10013817	     13.49497930	     -0.00281109	      0.92934973	     -0.19411157	     25.18014220	      3.69284931	     -7.10467750	      8.10234546	      0.14141261	    -12.50887386	    -16.17281150	     -5.68687410	    -13.40181718	     -5.44476740	      0.71949032	     17.88899324	      0.31222183	     13.05663625	     -0.78261122	     -5.68687410	     -1.53702373	      1.75155095	    -16.04195303	    -11.12294255	     -3.28375228	    -17.82354284	     17.87087480	    100.58399049	     19.95668573	     -8.73122453	     -4.04615068	     55.36108625	    105.05855753
      0.05000000	     -1.51578280	     -4.65060027	     13.63027954	      0.01006613	      0.93051164	     -0.19307365	     24.74223130	      4.51206694	     -7.23619926	      9.09176760	      0.15868128	    -12.38415760	    -17.02338921	     -5.71294403	    -12.74874724	     -6.37087113	      0.92967313	     20.57585814	      0.35911647	     11.20871097	     -1.96087003	     -5.71294403	     -1.70101636	      2.46442141	    -15.86639915	    -11.02269855	     -3.35510578	    -17.82081100	     17.61569823	    100.63873898	     19.41373507	     -8.36695397	     -3.76409445	     55.11999768	    105.11238966
      0.06000000	     -1.20691039	     -5.12216770	     13.75258797	      0.02274724	      0.93190051	     -0.19194357	     24.19763394	      5.29613318	     -7.30037093	      9.99204503	      0.17439408	    -11.90689287	    -17.80316491	     -5.73577609	    -11.88041217	     -7.23340346	      1.13219900	     23.65054117	      0.41277981	      9.06990775	     -3.09083678	     -5.73577609	     -1.94802908	      3.08923713	    -15.57150079	    -10.88661897	     -3.39981919	    -17.79856239	     17.41222695	    100.68415547	     18.91542705	     -8.01098804	     -3.39725293	     54.82198915	    105.17099314
      0.07000000	     -1.14199180	     -5.50088040	     13.77490907	      0.03517961	      0.93314922	     -0.19071663	     23.92662162	      5.96021403	     -7.21717385	     10.98205892	      0.19167309	    -11.33907553	    -18.47901387	     -5.80948602	    -10.62684363	     -7.79420928	      1.80659182	     26.84390187	      0.46851447	      5.98583792	     -5.31633958	     -5.80948602	     -1.93956849	      3.55426671	    -15.13312092	    -10.76471579	     -3.42753483	    -17.68363366	     17.21251392	    100.82195001	     18.43689123	     -7.73671307	     -2.62449261	     54.13187368	    105.38152248
